<svg width="1000" height="1000" viewBox="0 0 1000 1000" fill="none" xmlns="http://www.w3.org/2000/svg">
<path d="M0 20C0 8.95429 8.9543 0 20 0H980C991.046 0 1000 8.9543 1000 20V980C1000 991.046 991.046 1000 980 1000H20C8.95429 1000 0 991.046 0 980V20Z" fill="#C7FFF5"/>
<ellipse cx="504.523" cy="933.012" rx="295.5" ry="45.0001" fill="black" fill-opacity="0.2"/>
<path d="M390.852 886.93L392.999 901.668C392.999 901.668 373.319 898.416 362.074 910.105C350.83 921.794 350.398 933.241 350.64 935.833C350.881 938.425 378.972 941.893 399.949 944.727C416.418 947.121 433.204 946.091 449.258 941.703C462.662 938.234 467.858 932.619 468.722 930.675C469.586 928.731 464.796 903.206 464.796 903.206C464.796 903.206 403.405 870.248 390.852 886.93Z" fill="#6B796B"/>
<path d="M416.17 911.86C416.17 912.178 413.489 912.317 409.296 913.13C408.255 913.346 407.111 913.575 405.904 913.931C404.697 914.287 403.363 914.68 402.093 915.112C399.222 916.139 396.435 917.388 393.758 918.848C391.09 920.344 388.542 922.043 386.135 923.93C385.068 924.832 384.013 925.671 383.124 926.56C382.234 927.449 381.383 928.237 380.583 929.012C377.66 932.137 376.123 934.335 375.869 934.17C375.615 934.005 376.822 931.629 379.566 928.135C380.314 927.191 381.111 926.288 381.955 925.429C382.906 924.431 383.907 923.481 384.953 922.583C387.359 920.523 389.959 918.702 392.716 917.145C395.494 915.628 398.408 914.373 401.419 913.397C402.829 913.003 404.151 912.597 405.434 912.355C406.605 912.096 407.788 911.897 408.979 911.758C413.451 911.314 416.17 911.657 416.17 911.86Z" fill="#3B4A43"/>
<path d="M623.998 884.727L621.851 899.453C621.851 899.453 641.531 896.213 652.775 907.889C664.019 919.565 664.451 931.025 664.21 933.63C663.968 936.234 635.877 939.677 614.901 942.523C598.431 944.922 581.643 943.888 565.592 939.487C552.188 936.031 547.004 930.403 546.14 928.459C545.276 926.515 550.028 901.003 550.028 901.003C550.028 901.003 611.458 868.045 623.998 884.727Z" fill="#6B796B"/>
<path d="M598.691 909.688C598.691 909.472 601.398 909.129 605.781 909.688C606.861 909.828 608.055 910.006 609.326 910.298C610.596 910.591 611.867 910.934 613.328 911.34C619.399 913.245 625.019 916.366 629.845 920.513C630.924 921.492 631.966 922.406 632.843 923.372C633.683 924.226 634.476 925.125 635.219 926.065C637.963 929.509 639.107 931.999 638.929 932.113C638.751 932.227 637.125 930.068 634.202 926.955C633.466 926.18 632.665 925.329 631.661 924.49C630.658 923.651 629.73 922.775 628.65 921.86C626.248 919.967 623.699 918.267 621.027 916.778C618.35 915.298 615.563 914.024 612.693 912.966C611.422 912.534 610.151 912.09 608.881 911.798C607.61 911.505 606.543 911.2 605.489 910.984C601.36 910.146 598.679 910.006 598.691 909.688Z" fill="#3B4A43"/>
<path d="M454.214 287.708C454.214 287.708 456.386 260.9 470.654 242.731C484.922 224.563 502.227 220.243 502.227 220.243C502.227 220.243 490.983 222.403 483.626 237.967L476.283 253.543C476.283 253.543 495.341 235.375 510.447 226.722C525.554 218.07 547.648 220.243 547.648 220.243C547.648 220.243 518.235 229.759 509.532 247.051C500.829 264.343 500.88 285.98 500.88 285.98C500.88 285.98 520.777 251.815 529.861 246.187C535.497 242.735 541.454 239.838 547.648 237.535C547.648 237.535 544.611 240.139 539.428 259.604C536.331 271.088 534.16 282.801 532.935 294.632C539.526 283.756 549.147 275.039 560.62 269.552C580.084 260.036 590.897 257.317 590.897 257.317C590.897 257.317 571.839 269.552 566.668 276.464L561.484 283.388C576.278 286.103 591.489 285.513 606.029 281.66C628.898 275.168 640.638 264.787 640.638 264.787C640.638 264.787 633.713 276.464 622.85 291.608L612.114 306.74C612.114 306.74 628.11 299.384 652.771 308.9C677.432 318.416 700.352 308.9 700.352 308.9C700.352 308.9 692.132 316.256 677.483 320.589L662.783 324.909C662.783 324.909 681.294 336.559 702.919 335.289C724.543 334.018 731.899 332.748 731.899 332.748L705.511 355.236C705.511 355.236 740.107 364.32 753.092 380.748L766.064 397.189C766.064 397.189 753.524 384.217 739.675 380.748L725.839 377.216C725.839 377.216 748.708 405.333 760.435 437.769C772.162 470.206 776.012 494.46 776.012 494.46C776.012 494.46 771.692 478.884 752.66 462.888C733.627 446.892 727.135 444.719 727.135 444.719C727.135 444.719 754.388 482.34 762.176 506.136C769.964 529.933 777.74 546.361 795.908 558.469C814.077 570.578 833.109 567.122 856.893 594.806C880.678 622.491 884.578 644.103 875.494 651.027C866.41 657.952 865.114 642.375 853.006 634.155C840.897 625.934 827.049 622.428 819.21 639.783C811.371 657.138 815.754 694.276 814.026 713.74C812.298 733.205 793.698 708.989 788.501 696.449L783.317 683.896C785.186 706.155 784.019 728.565 779.849 750.509C772.937 786.402 764.717 810.224 764.717 810.224L764.285 774.319C764.285 774.319 759.089 814.112 748.276 829.257C737.464 844.401 718.864 865.581 718.864 864.285C718.864 862.989 721.468 839.205 721.468 839.205L703.681 866.877L704.113 848.721L673.1 873.776L676.123 861.236C676.123 861.236 644.983 878.959 641.527 887.18L641.095 870.32L580.948 905.755L586.564 891.487L535.095 910.951L536.823 896.671L498.708 917.863L471.086 897.128L476.715 917.888L407.56 887.18L411.88 900.596L356.091 864.26L363.003 885.02L316.731 855.607L323.21 872.048L292.934 833.119C292.934 833.119 292.502 846.523 298.562 864.26C298.562 864.26 275.693 852.583 257.473 808.471L245.365 788.574C245.365 788.574 247.525 807.632 249.253 814.951L250.981 822.307C243.786 808.523 237.992 794.051 233.689 779.109C227.146 755.693 227.146 738.833 227.146 738.833C227.146 738.833 207.25 761.322 203.362 765.209C199.474 769.097 213.742 755.693 215.038 741.425C216.334 727.157 217.579 712.012 217.579 712.012L202.638 731.909L208.927 690.388C208.927 690.388 190.326 724.984 186.438 724.984C182.551 724.984 179.946 692.98 179.946 679.144C179.946 665.308 187.302 644.535 157.077 635.463C126.851 626.392 131.996 660.112 121.184 658.816C110.372 657.52 109.064 636.759 124.64 613.826C140.217 590.893 140.636 591.503 165.729 575.418C190.822 559.333 194.709 551.977 207.25 536.413C219.79 520.849 220.654 513.544 220.654 513.544L198.597 527.812L250.015 460.283C250.015 460.283 226.663 475.428 212.827 494.028C212.827 494.028 215.368 483.216 226.663 462.011C237.958 440.806 246.56 429.143 246.56 429.143C246.56 429.143 231.847 436.931 197.251 435.203C197.251 435.203 205.903 435.635 225.799 423.527C245.696 411.419 288.944 367.725 288.944 367.725C271.741 374.556 252.818 375.77 234.883 371.194C234.883 371.194 256.94 369.923 275.108 359.937C293.277 349.951 323.541 323.613 323.541 323.613L300.671 319.712L326.196 313.233L292.019 284.252C300.666 289.043 310.27 291.851 320.136 292.472C336.144 293.336 349.116 287.276 368.149 284.684C378.036 283.232 388.003 282.384 397.993 282.143L366.421 273.923C366.421 273.923 386.317 266.998 404.905 270.899C418.131 273.903 431.137 277.804 443.834 282.575L434.749 248.398L454.214 287.708Z" fill="url(#paint0_radial_246_331)"/>
<path d="M389.211 565.822C428.127 565.822 459.674 532.147 459.674 490.607C459.674 449.067 428.127 415.393 389.211 415.393C350.295 415.393 318.748 449.067 318.748 490.607C318.748 532.147 350.295 565.822 389.211 565.822Z" fill="white"/>
<path d="M395.107 542.137C412.565 542.137 426.717 525.959 426.717 506.003C426.717 486.047 412.565 469.869 395.107 469.869C377.649 469.869 363.496 486.047 363.496 506.003C363.496 525.959 377.649 542.137 395.107 542.137Z" fill="url(#paint1_linear_246_331)"/>
<path d="M395.109 532.956C406.385 532.956 415.526 522.507 415.526 509.617C415.526 496.727 406.385 486.277 395.109 486.277C383.833 486.277 374.691 496.727 374.691 509.617C374.691 522.507 383.833 532.956 395.109 532.956Z" fill="black" stroke="black" stroke-width="0.34" stroke-miterlimit="10"/>
<path d="M372.216 495.745C370.145 499.557 372.953 503.305 370.476 505.465C370.011 505.895 369.44 506.194 368.821 506.331C368.203 506.467 367.559 506.435 366.956 506.24C364.072 504.893 363.501 496.253 367.528 490.866C370.183 487.309 375.329 484.514 377.692 486.114C378.153 486.448 378.523 486.891 378.769 487.403C379.016 487.916 379.13 488.481 379.103 489.049C378.95 492.06 374.275 491.908 372.216 495.745Z" fill="white"/>
<path d="M319.194 490.572C319.194 449.026 350.741 415.357 389.657 415.357C398.379 415.367 407.013 417.094 415.068 420.439C405.672 415.632 395.269 413.123 384.715 413.121C345.799 413.121 314.252 446.803 314.252 488.336C314.252 520.341 332.979 547.645 359.368 558.52C335.635 546.438 319.194 520.557 319.194 490.572Z" fill="black"/>
<path d="M601.451 566.951C640.367 566.951 671.914 533.276 671.914 491.736C671.914 450.196 640.367 416.521 601.451 416.521C562.536 416.521 530.988 450.196 530.988 491.736C530.988 533.276 562.536 566.951 601.451 566.951Z" fill="white"/>
<path d="M595.509 543.268C612.967 543.268 627.12 527.09 627.12 507.134C627.12 487.178 612.967 471 595.509 471C578.051 471 563.898 487.178 563.898 507.134C563.898 527.09 578.051 543.268 595.509 543.268Z" fill="url(#paint2_linear_246_331)"/>
<path d="M595.515 534.085C606.791 534.085 615.932 523.636 615.932 510.746C615.932 497.856 606.791 487.406 595.515 487.406C584.239 487.406 575.098 497.856 575.098 510.746C575.098 523.636 584.239 534.085 595.515 534.085Z" fill="black" stroke="black" stroke-width="0.34" stroke-miterlimit="10"/>
<path d="M618.488 496.873C620.559 500.685 617.751 504.433 620.229 506.593C620.69 507.028 621.262 507.33 621.881 507.467C622.501 507.603 623.146 507.569 623.748 507.368C626.632 506.021 627.204 497.381 623.177 491.994C620.521 488.437 615.376 485.642 613.012 487.255C612.551 487.585 612.18 488.026 611.934 488.536C611.687 489.047 611.573 489.611 611.602 490.178C611.716 493.189 616.392 493.036 618.488 496.873Z" fill="white"/>
<path d="M671.499 491.698C671.499 450.165 639.952 416.483 601.035 416.483C592.313 416.487 583.678 418.214 575.625 421.565C584.991 416.781 595.359 414.286 605.876 414.285C644.792 414.285 676.339 447.967 676.339 489.5C676.339 521.505 657.612 548.809 631.223 559.684C655.058 547.563 671.499 521.683 671.499 491.698Z" fill="black"/>
<path d="M340.09 416.509C339.518 416.102 341.728 411.363 347.243 404.998C350.494 401.273 354.141 397.911 358.118 394.974C363.06 391.312 368.525 388.417 374.33 386.385C377.403 385.369 380.57 384.663 383.783 384.276C386.767 384.01 389.769 384.01 392.753 384.276C397.761 384.701 402.675 385.888 407.326 387.795C410.5 389 413.438 390.755 416.003 392.979C417.693 394.681 418.468 395.736 418.214 396.041C417.96 396.346 416.702 395.863 414.733 394.77C411.933 393.429 409.01 392.361 406.004 391.581C401.577 390.364 397.024 389.665 392.435 389.498C389.767 389.424 387.096 389.539 384.444 389.841C381.63 390.253 378.858 390.912 376.16 391.81C370.863 393.672 365.818 396.186 361.142 399.293C357.265 401.874 353.579 404.732 350.114 407.844C344.143 413.193 340.801 417.03 340.09 416.509Z" fill="#42210B"/>
<path d="M570.037 391.046C569.745 390.411 574.052 387.438 582.031 384.77C586.732 383.213 591.589 382.174 596.515 381.67C602.63 381.025 608.808 381.316 614.836 382.533C617.998 383.215 621.084 384.211 624.047 385.507C626.752 386.794 629.34 388.312 631.785 390.042C635.878 392.96 639.507 396.482 642.546 400.486C644.666 403.144 646.3 406.154 647.374 409.38C647.971 411.705 648.098 413.001 647.717 413.128C647.336 413.255 646.51 412.213 645.354 410.307C643.624 407.727 641.65 405.318 639.459 403.116C636.265 399.82 632.701 396.903 628.837 394.426C626.58 392.989 624.224 391.715 621.786 390.614C619.15 389.533 616.425 388.682 613.642 388.073C608.135 386.982 602.514 386.581 596.909 386.879C592.26 387.132 587.635 387.727 583.073 388.657C575.259 390.246 570.38 391.846 570.037 391.046Z" fill="#42210B"/>
<path d="M687.79 566.034C684.982 563.861 682.175 555.654 678.706 557.14C675.238 558.627 662.71 587.633 654.706 601.037C646.702 614.441 619.462 636.51 600.429 641.262C598.231 641.808 595.766 642.418 593.086 643.053C582.642 645.594 568.946 648.542 555.046 650.867C543.384 652.984 531.584 654.258 519.738 654.678C518.862 654.678 518.01 654.678 517.197 654.678C513.869 654.678 509.879 654.526 505.445 654.335C494.747 653.852 481.445 652.976 468.473 652.048L465.766 651.858C451.498 650.841 437.815 649.799 428.832 649.317C424.678 649.062 421.501 648.91 419.659 648.91C415.562 648.777 411.489 648.232 407.5 647.284C392.171 643.807 377.389 638.25 363.566 630.767C344.622 620.171 329.261 598.331 322.121 586.223C314.981 574.114 309.797 563.506 309.797 563.506C309.797 563.506 307.421 561.422 303.521 567.012C299.62 572.603 292.277 569.236 291.197 563.124C290.117 557.013 296.609 544.486 307.853 548.59C319.097 552.693 323.849 554.002 340.887 564.814C357.925 575.626 345.003 572.158 369.435 579.73C393.868 587.302 415.721 585.79 430.853 586.654C445.984 587.518 478.866 585.384 493.566 585.575C508.265 585.765 567.739 587.493 582.019 586.845C596.3 586.197 615.536 583.338 628.292 575.41C641.048 567.482 660.525 552.3 670.473 547.7C680.421 543.101 685.605 544.842 687.765 551.969C689.925 559.097 690.611 568.206 687.79 566.034Z" fill="#40193E"/>
<path d="M593.05 643.091C582.606 645.632 568.91 648.579 555.01 650.904C543.348 653.021 531.548 654.295 519.703 654.716C518.826 654.716 517.975 654.716 517.162 654.716C513.833 654.716 509.843 654.563 505.409 654.373C494.712 653.89 481.409 653.013 468.437 652.086L465.731 651.895C451.463 650.879 437.779 649.837 428.797 649.354C424.642 649.1 421.466 648.948 419.624 648.948C415.527 648.814 411.453 648.27 407.465 647.321C413.97 622.178 456.914 612.573 492.069 617.375C526.017 619.103 535.533 613.475 554.566 618.239C571.362 622.356 585.91 628.581 593.05 643.091Z" fill="#CD6149"/>
<path d="M465.749 651.889C451.481 650.873 437.797 649.831 428.814 649.348C430.523 643.675 433.88 638.638 438.458 634.877C447.351 627.533 450.35 627.101 454.454 630.557C458.557 634.013 463.347 641.153 464.618 646.565C465.164 648.751 465.507 650.555 465.749 651.889Z" fill="white"/>
<path d="M505.359 654.371C494.661 653.888 481.359 653.012 468.387 652.084C469.897 646.725 472.861 641.888 476.95 638.109C485.374 630.257 488.385 629.66 492.679 632.874C496.973 636.088 502.132 642.949 503.745 648.273C504.584 650.954 505.079 652.999 505.359 654.371Z" fill="white"/>
<path d="M541.67 652.735C529.918 654.283 518.071 654.983 506.219 654.827C507.552 649.993 510.072 645.569 513.548 641.955C521.509 633.629 524.46 632.844 528.946 635.809C533.432 638.775 538.965 645.315 540.95 650.538C541.179 651.312 541.449 652.051 541.67 652.735Z" fill="white"/>
<path d="M577.237 646.287C565.746 649.193 554.06 651.268 542.271 652.494C543.032 647.538 545.019 642.85 548.051 638.856C554.988 629.659 557.827 628.535 562.628 630.958C567.429 633.381 573.686 639.232 576.266 644.188C576.584 644.931 576.938 645.632 577.237 646.287Z" fill="white"/>
<path d="M524.153 560.685C523.899 560.533 524.357 559.529 524.789 557.75C525.438 555.328 525.309 552.764 524.42 550.419C524.113 549.719 523.716 549.061 523.239 548.463C522.737 547.875 522.129 547.388 521.447 547.027C519.831 546.356 518.027 546.288 516.365 546.836C515.876 546.971 515.397 547.137 514.929 547.332L514.586 547.484L514.154 547.688L513.303 548.043L509.898 549.441C507.389 550.507 504.761 551.27 502.072 551.715C500.631 551.91 499.173 551.94 497.726 551.804C497.008 551.728 496.295 551.605 495.592 551.436C495.236 551.347 494.893 551.258 494.55 551.143L494.055 550.966C493.877 550.966 493.762 550.889 493.457 550.762L491.768 549.873C491.259 549.593 490.726 549.403 490.218 549.161C489.708 548.931 489.186 548.727 488.655 548.552C488.159 548.348 487.649 548.178 487.13 548.043C485.269 547.427 483.305 547.181 481.349 547.319C479.782 547.416 478.294 548.043 477.131 549.098C476.638 549.572 476.211 550.11 475.861 550.699C475.571 551.285 475.324 551.893 475.124 552.516C474.984 553.138 474.755 553.697 474.692 554.256C474.628 554.815 474.539 555.323 474.463 555.781C474.298 557.648 474.196 558.754 473.917 558.792C473.637 558.83 473.282 557.788 472.989 555.793C472.989 555.273 472.913 554.714 472.875 554.091C472.89 553.407 472.945 552.724 473.04 552.045C473.182 551.238 473.391 550.443 473.663 549.67C474.05 548.791 474.564 547.973 475.187 547.243C476.687 545.578 478.724 544.494 480.943 544.181C483.317 543.847 485.734 544.002 488.045 544.638C488.652 544.775 489.251 544.949 489.837 545.159C490.421 545.35 491.031 545.54 491.615 545.795C492.2 546.049 492.797 546.252 493.381 546.544L494.995 547.345L495.681 547.548C495.936 547.645 496.2 547.717 496.469 547.764C497.009 547.886 497.556 547.975 498.108 548.031C499.26 548.123 500.419 548.089 501.563 547.929C503.961 547.527 506.308 546.867 508.564 545.96L511.969 544.689L512.782 544.384H512.909L513.151 544.27L513.621 544.092C514.234 543.859 514.862 543.668 515.501 543.52C518.021 542.817 520.715 543.113 523.023 544.346C524.055 544.963 524.946 545.79 525.64 546.773C526.206 547.617 526.651 548.536 526.961 549.504C527.458 551.15 527.584 552.886 527.33 554.586C527.162 555.845 526.78 557.066 526.199 558.195C525.233 560.101 524.331 560.812 524.153 560.685Z" fill="#32201C"/>
<path d="M235.898 613.369C236.648 613.369 237.271 618.032 236.75 625.528C235.092 645.158 228.029 663.945 216.345 679.805C215.214 681.342 214.185 682.524 213.461 683.617C212.835 684.511 212.343 685.491 212 686.526C211.492 688.165 212 689.232 211.619 689.487C211.466 689.588 211.123 689.487 210.704 688.978C210.112 688.225 209.79 687.294 209.789 686.336C209.76 684.899 210.042 683.473 210.615 682.156C211.31 680.579 212.095 679.043 212.965 677.556C217.602 669.363 221.611 660.83 224.959 652.031C228.225 643.213 230.828 634.163 232.748 624.957C234.259 617.842 235.073 613.331 235.898 613.369Z" fill="#3B4A43"/>
<path d="M787.885 684.825C787.415 685.359 782.892 682.551 776.844 676.478L774.519 674.064C773.719 673.213 772.956 672.26 772.143 671.307C770.466 669.414 768.891 667.229 767.201 664.954C763.672 659.908 760.566 654.579 757.913 649.022C755.317 643.432 753.192 637.636 751.561 631.692C750.887 628.935 750.214 626.318 749.833 623.828C749.63 622.557 749.376 621.401 749.236 620.232C749.096 619.063 748.982 617.958 748.867 616.903C748.067 608.365 748.804 603.093 749.515 603.08C750.227 603.067 751.091 608.162 752.869 616.268C753.085 617.272 753.327 618.326 753.581 619.419C753.835 620.512 754.165 621.63 754.47 622.799C755.029 625.149 755.842 627.601 756.618 630.206C760.207 641.389 765.22 652.064 771.533 661.969C773.033 664.218 774.392 666.416 775.841 668.321C776.552 669.3 777.187 670.278 777.873 671.167L779.843 673.708C784.95 680.328 788.457 684.177 787.885 684.825Z" fill="#3B4A43"/>
<path d="M471.249 270.304C471.249 270.304 470.944 270.748 470.245 271.434C469.223 272.433 468.268 273.498 467.387 274.623C464.246 278.823 462.124 283.694 461.187 288.853C459.824 296.519 460.211 304.393 462.317 311.888C463.576 316.318 465.138 320.657 466.993 324.873C468.911 329.294 471.084 333.766 473.345 338.417C475.607 343.067 477.678 347.615 479.431 352.164C481.12 356.538 482.517 361.02 483.611 365.58C484.599 369.709 485.346 373.892 485.847 378.108C486.292 382.059 486.47 385.731 486.533 389.149C486.574 394.509 486.175 399.863 485.339 405.157C485.06 407.025 484.755 408.461 484.526 409.426C484.465 409.934 484.319 410.428 484.094 410.887C484.144 408.939 484.314 406.996 484.602 405.068C485.127 399.809 485.31 394.521 485.149 389.238C485.009 385.909 484.742 382.25 484.234 378.362C483.668 374.223 482.879 370.117 481.871 366.063C480.749 361.594 479.341 357.201 477.653 352.913C475.899 348.441 473.841 343.918 471.579 339.293C469.318 334.669 467.183 330.145 465.227 325.673C463.378 321.366 461.837 316.934 460.615 312.409C458.52 304.655 458.263 296.52 459.865 288.65C460.949 283.337 463.338 278.377 466.815 274.217C467.777 273.116 468.841 272.108 469.991 271.206C470.779 270.482 471.211 270.253 471.249 270.304Z" fill="#77AF9C"/>
<path d="M621.137 283.726C621.137 283.726 620.921 284.12 620.362 284.756C620.07 285.073 619.727 285.48 619.295 285.912L617.719 287.347C614.211 290.266 610.278 292.631 606.056 294.361C599.814 296.854 593.364 298.793 586.782 300.154C579.426 301.831 571.358 303.61 563.074 306.1C555.271 308.34 547.709 311.344 540.497 315.07C534.632 318.13 529.163 321.893 524.209 326.276C515.76 333.899 512.532 340.328 512.215 340.087C512.215 340.087 512.329 339.655 512.71 338.892C513.266 337.797 513.881 336.732 514.553 335.703C517.048 331.9 519.982 328.404 523.294 325.285C528.229 320.67 533.743 316.715 539.696 313.52C546.975 309.646 554.64 306.546 562.566 304.271C570.939 301.73 579.083 300.014 586.439 298.439C592.951 297.17 599.353 295.39 605.586 293.116C609.751 291.526 613.686 289.39 617.287 286.763L618.952 285.492C619.409 285.086 619.803 284.755 620.121 284.489C620.73 283.942 621.086 283.688 621.137 283.726Z" fill="#77AF9C"/>
<path d="M656.319 350.917C654.787 350.656 653.287 350.23 651.847 349.646C650.437 349.163 648.671 348.668 646.638 348.083L643.385 347.156L639.713 346.228C637.172 345.53 634.276 344.958 631.226 344.335C629.702 344.018 628.101 343.776 626.462 343.484L623.921 343.065L621.38 342.722C613.836 341.665 606.229 341.135 598.612 341.134C584.763 341.121 570.963 342.776 557.51 346.063C554.969 346.762 552.568 347.334 550.599 347.918C548.906 348.421 547.308 349.203 545.872 350.231C544.973 350.896 544.245 351.768 543.751 352.772C543.408 353.445 543.331 353.864 543.242 353.839C543.164 353.41 543.217 352.967 543.395 352.568C543.786 351.434 544.48 350.427 545.402 349.659C546.837 348.459 548.477 347.529 550.243 346.914C552.276 346.139 554.601 345.555 557.167 344.767C570.673 341.056 584.618 339.188 598.625 339.215C606.324 339.22 614.011 339.811 621.621 340.981L624.162 341.362L626.703 341.832C628.355 342.163 629.956 342.442 631.493 342.785C634.568 343.522 637.439 344.132 640.006 344.932L643.677 345.987L646.905 347.067C648.925 347.753 650.653 348.337 651.987 348.935C653.501 349.429 654.955 350.094 656.319 350.917Z" fill="#77AF9C"/>
<path d="M342.777 321.766C344.405 321.905 346.015 322.212 347.58 322.68C350.629 323.392 355.038 324.472 360.45 325.946C371.25 328.919 386.242 333.289 401.679 340.963C408.924 344.58 415.804 348.886 422.223 353.821C427.471 357.852 432.287 362.416 436.593 367.441C439.498 370.824 442.096 374.459 444.356 378.304C445.253 379.671 445.978 381.143 446.516 382.687C446.185 382.89 443.047 376.614 435.576 368.33C431.196 363.513 426.367 359.123 421.156 355.218C414.765 350.44 407.962 346.239 400.828 342.666C385.581 335.043 370.767 330.532 360.095 327.242L347.389 323.43C345.8 323.033 344.254 322.476 342.777 321.766Z" fill="#77AF9C"/>
<path d="M303.908 382.403C304.061 382.593 301.888 384.728 298.013 387.752C292.935 391.655 287.542 395.132 281.89 398.145C276.238 401.161 270.348 403.71 264.281 405.768C259.618 407.305 256.658 407.928 256.569 407.686C256.378 407.127 267.927 403.481 280.988 396.455C294.049 389.429 303.54 381.945 303.908 382.403Z" fill="#4D9797"/>
<path d="M437.346 359.108C436.804 358.302 436.332 357.452 435.936 356.566C435.072 354.889 433.839 352.475 432.226 349.54C428.143 341.832 423.11 334.666 417.246 328.208C411.344 321.784 404.142 316.69 396.117 313.267C393.674 312.261 391.155 311.45 388.583 310.84C387.625 310.673 386.679 310.444 385.75 310.154C385.75 310.154 386.017 310.154 386.512 310.154C387.008 310.154 387.783 310.269 388.66 310.459C391.29 310.929 393.868 311.652 396.359 312.619C404.585 315.892 411.968 320.977 417.958 327.497C423.89 334.007 428.9 341.3 432.848 349.172C434.386 352.158 435.542 354.635 436.291 356.35C436.722 357.237 437.075 358.16 437.346 359.108Z" fill="#F2F2F2"/>
<path d="M515.891 297.4C515.576 298.157 515.18 298.877 514.709 299.548L511.24 305.24C507.333 311.416 503.901 317.88 500.975 324.577C498.103 331.284 496.385 338.427 495.892 345.706C495.588 351.296 496.261 354.739 496.07 354.765C495.814 353.986 495.647 353.18 495.575 352.363C495.267 350.145 495.148 347.906 495.219 345.668C495.538 338.275 497.204 331.002 500.136 324.208C503.07 317.457 506.608 310.985 510.707 304.871C512.244 302.521 513.54 300.64 514.442 299.344C514.859 298.65 515.344 297.999 515.891 297.4Z" fill="#F2F2F2"/>
<path d="M591.363 367.263C590.3 367.504 589.222 367.669 588.136 367.759C586.052 368.025 583.054 368.407 579.318 369.029C569.64 370.354 560.152 372.815 551.049 376.36C541.965 379.967 533.741 385.443 526.909 392.432C524.874 394.575 523.009 396.873 521.332 399.306C520.763 400.233 520.144 401.128 519.477 401.987C519.554 401.714 519.67 401.453 519.82 401.212C520.099 400.729 520.442 399.941 521.027 399.103C522.594 396.563 524.398 394.176 526.414 391.975C533.188 384.755 541.468 379.116 550.668 375.458C559.844 371.867 569.443 369.468 579.229 368.318C582.965 367.835 586.001 367.555 588.123 367.403C589.178 367.327 589.991 367.289 590.55 367.263C590.819 367.22 591.094 367.22 591.363 367.263Z" fill="#F2F2F2"/>
<path d="M382.802 749.48L382.497 749.327L381.621 748.845C380.858 748.4 379.702 747.765 378.228 746.863C373.963 744.236 369.856 741.36 365.93 738.248C359.748 733.338 354.032 727.868 348.854 721.909C345.618 718.236 342.605 714.371 339.833 710.335C338.334 708.213 336.911 705.964 335.488 703.627C334.789 702.445 334.078 701.263 333.392 700.044L331.702 696.931L330.533 699.281L329.085 702.331C328.132 704.402 327.179 706.511 326.277 708.683C324.447 713.003 322.719 717.577 321.195 722.24C320.407 724.603 319.645 727.004 318.933 729.456L318.412 731.299L317.929 733.001L317.815 733.433C317.815 733.433 317.663 733.204 317.599 733.103L317.154 732.302L316.011 730.244L315.033 728.567C312.39 724.069 309.353 719.673 306.253 715.176C303.153 710.678 299.964 706.091 297.029 701.2C293.961 696.27 291.467 691.006 289.597 685.509C287.652 679.82 286.723 673.834 286.852 667.823C286.985 661.616 288.861 655.571 292.265 650.379L293.053 650.9C292.481 651.789 291.896 652.679 291.312 653.568L270.755 684.95C270.755 681.38 270.755 677.848 270.679 674.328C270.679 671.317 270.679 668.344 270.679 665.435C270.755 659.527 270.984 653.72 271.441 648.041C271.873 642.432 272.607 636.851 273.639 631.321C273.88 629.974 274.135 628.64 274.439 627.332C274.744 626.023 275.011 624.702 275.367 623.418L275.862 621.487L276.066 620.725L276.142 620.471L276.307 619.937L276.383 619.67L276.32 619.772C276.002 620.255 275.697 620.738 275.38 621.208L273.258 624.359C271.822 626.442 270.374 628.45 268.9 630.406C265.952 634.307 263.005 638.029 259.917 641.384C258.347 643.073 256.408 644.377 254.251 645.195C253.161 645.6 251.974 645.667 250.846 645.386C250.288 645.224 249.766 644.957 249.309 644.598L248.851 644.217C248.851 644.141 248.622 644.077 248.661 643.988L248.838 643.696L249.334 642.921C251.524 639.548 253.542 636.066 255.382 632.49C260.902 621.777 264.872 610.334 267.172 598.503C267.985 594.349 268.443 591.096 268.684 588.898C268.798 587.793 268.9 586.954 268.964 586.357C269.027 585.76 269.091 585.506 269.091 585.506C269.091 585.506 269.091 585.798 269.091 586.357C269.091 586.916 268.976 587.767 268.887 588.898C268.671 591.109 268.303 594.374 267.54 598.554C265.368 610.458 261.469 621.98 255.966 632.757C254.136 636.362 252.126 639.873 249.944 643.277L249.601 643.823C249.601 643.823 249.601 643.823 249.601 643.912L249.766 644.039C250.141 644.342 250.573 644.567 251.036 644.7C252.031 644.944 253.076 644.882 254.035 644.522C256.079 643.735 257.917 642.492 259.409 640.888C262.42 637.534 265.381 633.824 268.303 629.949C269.76 627.992 271.195 625.981 272.61 623.914C273.309 622.885 274.02 621.83 274.719 620.776C275.176 620.077 275.621 619.378 276.066 618.679L277.946 615.706L278.912 614.194L278.454 615.744L277.501 618.959L277.019 620.572L276.892 620.992L276.828 621.246L276.701 621.729L276.205 623.634C275.862 624.905 275.583 626.175 275.303 627.522C275.024 628.869 274.757 630.152 274.503 631.486C273.522 636.952 272.822 642.465 272.407 648.003C271.962 653.657 271.746 659.438 271.67 665.333C271.67 668.281 271.67 671.266 271.67 674.227C271.67 676.768 271.67 679.22 271.733 681.748L290.588 652.945C291.16 652.056 291.744 651.167 292.328 650.277L293.116 650.811C289.819 655.873 288.005 661.758 287.882 667.798C287.745 673.692 288.635 679.564 290.512 685.153C292.355 690.587 294.815 695.792 297.842 700.666C300.752 705.52 303.916 710.094 307.016 714.642C310.116 719.191 313.14 723.536 315.795 728.097L316.786 729.799L317.536 731.159C317.536 731.248 317.536 731.159 317.624 731.045L318.158 729.19C318.87 726.725 319.632 724.324 320.432 721.96C322.033 717.234 323.774 712.685 325.616 708.353C326.531 706.18 327.496 704.071 328.462 702C328.958 700.971 329.44 699.955 329.936 698.938L331.74 695.33C332.528 696.791 333.315 698.252 334.078 699.688C334.751 700.895 335.463 702.077 336.149 703.258C337.559 705.583 338.957 707.832 340.443 709.941C343.177 713.971 346.146 717.836 349.337 721.516C354.46 727.465 360.112 732.937 366.222 737.867C370.116 741.004 374.174 743.931 378.381 746.634C379.829 747.561 380.922 748.222 381.722 748.705L382.561 749.238C382.651 749.309 382.732 749.39 382.802 749.48Z" fill="#4D9797"/>
<path d="M597.434 759.175C597.518 759.1 597.612 759.035 597.713 758.985L598.564 758.451C599.314 757.968 600.445 757.308 601.893 756.38C606.104 753.683 610.163 750.757 614.052 747.614C620.167 742.684 625.822 737.211 630.95 731.262C634.136 727.579 637.106 723.715 639.844 719.687C641.317 717.578 642.728 715.329 644.138 713.004C644.811 711.823 645.523 710.641 646.196 709.434L648.534 705.076L650.351 708.685C650.834 709.701 651.329 710.717 651.825 711.746C652.79 713.817 653.743 715.927 654.671 718.099C656.513 722.432 658.253 726.993 659.842 731.706C660.642 734.07 661.417 736.471 662.129 738.936L662.662 740.791C662.662 740.956 662.662 740.994 662.751 740.892L663.488 739.546L664.479 737.843C667.134 733.32 670.171 728.886 673.258 724.388C676.346 719.891 679.535 715.304 682.444 710.412C685.468 705.538 687.923 700.333 689.762 694.899C691.652 689.314 692.542 683.439 692.392 677.544C692.281 671.502 690.467 665.614 687.158 660.557L687.958 660.023C688.53 660.913 689.114 661.802 689.699 662.692L708.553 691.494C708.553 688.953 708.553 686.412 708.553 683.973C708.553 680.962 708.553 677.989 708.553 675.079C708.477 669.184 708.261 663.403 707.829 657.749C707.41 652.211 706.706 646.698 705.72 641.232C705.479 639.898 705.237 638.577 704.932 637.268C704.627 635.96 704.373 634.664 704.018 633.38L703.535 631.475L703.408 630.992L703.332 630.725L703.217 630.319L702.734 628.705C702.417 627.625 702.086 626.558 701.769 625.49L701.324 623.94L702.277 625.452C702.912 626.443 703.548 627.434 704.157 628.425C704.615 629.124 705.059 629.823 705.504 630.522L707.613 633.66C709.036 635.735 710.472 637.747 711.92 639.695C714.842 643.507 717.803 647.318 720.814 650.634C722.304 652.235 724.137 653.477 726.176 654.268C727.134 654.628 728.179 654.69 729.174 654.446C729.637 654.312 730.069 654.087 730.444 653.785L730.597 653.658C730.597 653.658 730.597 653.658 730.597 653.569L730.241 653.01C728.063 649.611 726.057 646.104 724.232 642.503C718.729 631.726 714.83 620.204 712.657 608.3C711.895 604.12 711.526 600.855 711.298 598.644C711.205 597.535 711.141 596.688 711.107 596.103C711.09 595.82 711.09 595.535 711.107 595.252C711.107 595.252 711.107 595.544 711.221 596.103C711.336 596.662 711.387 597.501 711.514 598.644C711.78 600.842 712.212 604.095 713.026 608.249C715.316 620.082 719.286 631.527 724.816 642.236C726.651 645.812 728.665 649.294 730.851 652.667L731.347 653.442L731.537 653.734C731.537 653.823 731.397 653.887 731.334 653.963L730.889 654.344C730.432 654.703 729.91 654.97 729.352 655.132C728.224 655.413 727.037 655.347 725.947 654.941C723.79 654.124 721.851 652.819 720.28 651.13C717.18 647.725 714.245 644.053 711.285 640.152C709.824 638.196 708.363 636.176 706.94 634.105L704.882 630.992L703.929 629.556V629.455L704.018 629.721L704.17 630.255L704.259 630.509L704.45 631.271L704.958 633.203C705.314 634.473 705.58 635.744 705.873 637.116C706.165 638.488 706.432 639.759 706.686 641.105C707.688 646.57 708.404 652.083 708.833 657.622C709.29 663.301 709.506 669.057 709.595 675.016C709.595 677.976 709.595 680.949 709.595 683.909C709.595 687.416 709.57 690.956 709.519 694.531L688.962 663.149L687.221 660.481L688.022 659.96C691.424 665.166 693.291 671.225 693.409 677.442C693.561 683.45 692.649 689.438 690.715 695.128C688.853 700.664 686.359 705.968 683.283 710.933C680.348 715.812 677.159 720.399 674.046 724.909C670.933 729.419 667.922 733.803 665.279 738.301L664.288 739.978L663.158 742.036L662.713 742.836C662.637 742.938 662.561 743.167 662.497 743.167L662.37 742.735L661.9 741.032L661.366 739.177C660.667 736.738 659.905 734.336 659.117 731.973C657.542 727.272 655.827 722.737 654.035 718.417C653.133 716.257 652.18 714.148 651.227 712.064C650.732 711.048 650.249 710.019 649.766 709.015C649.373 708.227 648.991 707.439 648.598 706.664C648.038 707.706 647.467 708.748 646.92 709.777C646.234 711.048 645.51 712.179 644.824 713.36C643.388 715.685 641.978 717.947 640.479 720.068C637.699 724.098 634.687 727.963 631.458 731.643C626.275 737.586 620.559 743.042 614.382 747.944C610.454 751.059 606.343 753.935 602.071 756.558C600.61 757.46 599.441 758.095 598.679 758.54L597.802 759.023C597.565 759.141 597.442 759.192 597.434 759.175Z" fill="#4D9797"/>
<path d="M255.975 737.262C255.381 736.509 254.854 735.706 254.399 734.861C253.917 734.073 253.345 733.108 252.735 731.939C252.125 730.77 251.376 729.474 250.69 727.975C250.003 726.476 249.19 724.849 248.453 723.045C247.716 721.241 246.941 719.31 246.166 717.264C244.581 712.788 243.257 708.224 242.202 703.594C241.197 698.953 240.467 694.256 240.017 689.529C239.852 687.344 239.661 685.273 239.636 683.316C239.611 681.36 239.56 679.568 239.636 677.904C239.712 676.239 239.738 674.766 239.814 673.444C239.89 672.123 239.979 671.005 240.081 670.09C240.139 669.132 240.275 668.18 240.487 667.244C240.578 668.199 240.578 669.16 240.487 670.115C240.487 671.043 240.386 672.161 240.386 673.47C240.386 674.778 240.297 676.265 240.386 677.916C240.475 679.568 240.386 681.36 240.551 683.291C240.716 685.222 240.83 687.28 241.021 689.44C241.513 694.136 242.259 698.801 243.257 703.416C244.289 708.007 245.562 712.54 247.069 716.998C247.818 719.043 248.492 720.987 249.254 722.766C250.016 724.545 250.702 726.209 251.376 727.708C252.049 729.207 252.722 730.541 253.281 731.723C253.84 732.905 254.374 733.896 254.806 734.709C255.267 735.525 255.658 736.38 255.975 737.262Z" fill="#9AD0BE"/>
<path d="M262.837 756.883C262.685 756.819 263.727 754.481 264.832 750.53C265.467 748.217 265.976 745.872 266.357 743.504C266.763 740.823 267.081 737.863 267.259 734.737C267.576 728.486 267.36 722.795 267.259 718.678C267.078 716.459 267.048 714.231 267.17 712.008C267.348 712.585 267.45 713.183 267.475 713.787C267.614 714.93 267.767 716.594 267.932 718.653C268.369 724.02 268.471 729.409 268.237 734.788C268.078 737.769 267.747 740.739 267.246 743.682C266.825 746.078 266.239 748.443 265.493 750.759C265.213 751.75 264.845 752.626 264.552 753.389C264.313 754.051 264.037 754.7 263.727 755.333C263.51 755.891 263.21 756.414 262.837 756.883Z" fill="#9AD0BE"/>
<path d="M337.573 834.731C337.235 834.519 336.923 834.268 336.646 833.981C336.061 833.473 335.197 832.711 334.105 831.707C331.932 829.712 328.832 826.777 325.122 823.029C315.337 813.331 306.707 802.531 299.407 790.847C295.464 784.356 292.162 777.496 289.547 770.366C287.413 764.546 285.863 758.528 284.923 752.401C284.271 748.275 283.965 744.101 284.008 739.924C284.008 738.438 284.109 737.294 284.135 736.519C284.14 736.122 284.182 735.727 284.262 735.338C284.306 735.735 284.306 736.135 284.262 736.532C284.262 737.307 284.262 738.451 284.262 739.912C284.37 744.06 284.773 748.196 285.469 752.287C286.504 758.353 288.108 764.308 290.259 770.074C292.896 777.144 296.192 783.95 300.105 790.402C307.394 802.02 315.914 812.818 325.516 822.61C329.162 826.422 332.186 829.42 334.27 831.504L336.671 833.905C336.998 834.15 337.3 834.427 337.573 834.731Z" fill="#9AD0BE"/>
<path d="M393.353 824.659C393.353 824.659 393.01 824.494 392.413 824.075L389.872 822.245C387.649 820.632 384.46 818.256 380.572 815.257C370.363 807.515 360.799 798.957 351.972 789.669C343.137 780.341 335.796 769.704 330.208 758.135C328.55 754.622 327.133 751.001 325.965 747.297C325.533 746.027 325.291 744.947 325.088 744.248C324.976 743.897 324.899 743.535 324.859 743.168C325.044 743.491 325.185 743.837 325.279 744.197C325.533 744.87 325.825 745.9 326.32 747.17C327.614 750.811 329.116 754.374 330.818 757.842C336.544 769.245 343.906 779.749 352.671 789.021C361.477 798.262 370.942 806.853 380.991 814.724L390.088 821.94L392.553 823.922C392.844 824.14 393.112 824.387 393.353 824.659Z" fill="#9AD0BE"/>
<path d="M761.813 758.889C761.837 757.869 761.948 756.854 762.143 755.853C762.283 754.874 762.448 753.693 762.562 752.295C762.677 750.897 762.905 749.335 762.956 747.581C762.956 746.717 763.058 745.79 763.109 744.837C763.16 743.884 763.109 742.893 763.109 741.864C763.109 739.806 763.045 737.608 762.956 735.295C762.413 725.255 760.397 715.349 756.972 705.895C756.134 703.736 755.384 701.665 754.52 699.797C754.088 698.857 753.72 697.929 753.249 697.078C752.779 696.227 752.411 695.401 751.979 694.613C751.229 693.025 750.416 691.666 749.756 690.433C749.095 689.201 748.485 688.184 747.964 687.346C747.393 686.498 746.892 685.606 746.465 684.678C747.135 685.447 747.738 686.272 748.269 687.143C748.841 687.956 749.54 688.959 750.213 690.166C750.886 691.373 751.788 692.707 752.576 694.308L753.847 696.76C754.291 697.612 754.685 698.539 755.117 699.479C756.032 701.347 756.82 703.418 757.658 705.591C761.238 715.093 763.296 725.101 763.757 735.245C763.82 737.582 763.922 739.793 763.82 741.877C763.82 742.906 763.82 743.91 763.731 744.875C763.642 745.841 763.579 746.756 763.515 747.632C763.414 749.398 763.16 750.974 762.982 752.371C762.842 753.558 762.643 754.737 762.385 755.903C762.275 756.912 762.084 757.911 761.813 758.889Z" fill="#4D9797"/>
<path d="M712.863 808.953C712.863 808.889 713.816 807.962 715.468 806.157C717.772 803.602 719.76 800.778 721.389 797.747C723.782 793.205 725.56 788.364 726.674 783.352C728.038 777.204 728.77 770.933 728.859 764.637C728.974 757.928 728.669 751.538 728.453 745.706C728.237 739.874 728.084 734.627 728.199 730.205C728.251 726.713 728.497 723.227 728.935 719.762C729.075 718.491 729.266 717.589 729.38 716.954C729.417 716.625 729.489 716.301 729.596 715.988C729.575 717.264 729.478 718.536 729.304 719.8C729.075 722.252 728.885 725.809 728.872 730.205C728.859 734.601 729.05 739.849 729.329 745.668C729.609 751.487 729.939 757.903 729.812 764.662C729.726 771.023 728.964 777.356 727.538 783.555C726.363 788.625 724.49 793.508 721.973 798.064C720.275 801.135 718.172 803.964 715.722 806.475C715.063 807.161 714.363 807.806 713.626 808.406C713.394 808.618 713.138 808.801 712.863 808.953Z" fill="#4D9797"/>
<path d="M633.609 848.406C633.828 848.139 634.075 847.896 634.346 847.682L636.532 845.738L638.132 844.366C638.704 843.845 639.314 843.248 639.962 842.638C641.233 841.367 642.808 840.021 644.345 838.356L646.886 835.815C647.738 834.913 648.563 833.922 649.427 832.918C651.232 830.949 652.972 828.687 654.84 826.35C658.763 821.16 662.329 815.71 665.512 810.036C668.621 804.317 671.341 798.396 673.656 792.312C674.635 789.479 675.638 786.811 676.35 784.232C676.718 782.961 677.125 781.691 677.43 780.535C677.735 779.378 678.014 778.171 678.281 777.066C678.878 774.881 679.209 772.848 679.552 771.082C679.729 770.192 679.907 769.379 680.047 768.617C680.187 767.855 680.263 767.156 680.365 766.521C680.568 765.25 680.733 764.297 680.835 763.637C680.881 763.296 680.957 762.96 681.064 762.633C681.114 762.974 681.114 763.321 681.064 763.662C681 764.335 680.898 765.314 680.771 766.571C680.695 767.207 680.619 767.918 680.53 768.681C680.441 769.443 680.263 770.281 680.123 771.222C679.793 773.013 679.513 775.033 678.954 777.269C678.7 778.387 678.433 779.556 678.154 780.763C677.874 781.97 677.468 783.215 677.112 784.575C676.439 787.116 675.461 789.873 674.482 792.732C670.01 805.088 663.621 816.664 655.551 827.036C653.646 829.374 651.88 831.635 650.037 833.604C649.135 834.595 648.297 835.586 647.42 836.463L644.879 839.004C643.303 840.656 641.715 841.99 640.381 843.21C639.695 843.807 639.111 844.378 638.488 844.887C637.866 845.395 637.319 845.801 636.824 846.157L634.511 847.961C634.233 848.151 633.929 848.301 633.609 848.406Z" fill="#4D9797"/>
<path d="M584.898 825.95C585.055 825.676 585.247 825.424 585.47 825.2L587.249 823.18C588.824 821.452 591.06 818.924 593.779 815.76C596.498 812.597 599.649 808.76 603.041 804.415C606.434 800.069 610.017 795.191 613.625 789.943C617.233 784.696 620.46 779.576 623.306 774.862C626.152 770.148 628.579 765.803 630.548 762.157C632.518 758.51 634.08 755.487 635.122 753.403C635.656 752.361 636.075 751.561 636.393 751.014C636.522 750.725 636.684 750.453 636.876 750.201C636.817 750.512 636.71 750.813 636.558 751.091C636.317 751.662 635.948 752.488 635.478 753.555C634.538 755.69 633.077 758.739 631.171 762.449C629.265 766.159 626.877 770.542 624.094 775.32C621.312 780.097 618.034 785.23 614.438 790.502C610.843 795.775 607.183 800.666 603.753 804.974C600.323 809.281 597.095 813.105 594.3 816.218C591.505 819.331 589.218 821.795 587.554 823.447L585.635 825.34C585.415 825.573 585.168 825.777 584.898 825.95Z" fill="#4D9797"/>
<path d="M694.484 762.549C694.704 760.262 695.048 757.989 695.513 755.739C696.212 751.559 697.051 745.753 697.635 739.311C698.22 732.87 698.436 727.013 698.512 722.794C698.46 720.497 698.528 718.199 698.715 715.908C698.877 716.509 698.959 717.128 698.957 717.75C699.058 718.945 699.135 720.66 699.185 722.833C699.292 728.379 699.093 733.927 698.588 739.451C698.089 744.996 697.287 750.51 696.187 755.968C695.755 758.051 695.361 759.779 695.056 760.885C694.936 761.461 694.743 762.02 694.484 762.549Z" fill="#F2F2F2"/>
<path d="M612.445 823.171C612.521 822.887 612.641 822.617 612.801 822.371C613.068 821.863 613.474 821.1 613.983 820.186C615.05 818.293 616.524 815.574 618.48 812.207C622.292 805.498 627.653 796.274 633.612 786.098C639.571 775.921 645.047 766.747 648.998 760.128C650.002 758.476 650.853 756.977 651.73 755.669C652.07 755.07 652.533 754.55 653.09 754.145C653.646 753.74 654.283 753.458 654.957 753.318C655.392 753.255 655.835 753.295 656.252 753.434C656.669 753.573 657.048 753.807 657.358 754.119C657.573 754.333 657.703 754.617 657.727 754.919C657.578 754.68 657.408 754.454 657.218 754.246C656.912 753.999 656.556 753.821 656.174 753.724C655.793 753.628 655.395 753.615 655.008 753.687C654.401 753.847 653.835 754.134 653.347 754.528C652.859 754.922 652.459 755.414 652.175 755.973C651.374 757.244 650.548 758.807 649.634 760.471C645.822 767.179 640.448 776.416 634.489 786.58C628.53 796.745 623.054 805.93 619.103 812.55C617.108 815.853 615.482 818.521 614.351 820.363C613.779 821.278 613.322 821.977 613.017 822.473C612.857 822.729 612.664 822.963 612.445 823.171Z" fill="#F2F2F2"/>
<path d="M444.577 745.189C444.133 744.687 443.753 744.132 443.446 743.537C443.103 742.991 442.709 742.266 442.29 741.504C441.871 740.742 441.35 739.801 440.88 738.747C439.721 736.317 438.703 733.823 437.831 731.276C436.779 728.145 435.93 724.95 435.29 721.709C434.683 718.465 434.288 715.184 434.108 711.888C433.977 709.2 434.002 706.506 434.184 703.82C434.184 702.677 434.375 701.635 434.476 700.733C434.578 699.831 434.692 699.056 434.807 698.421C434.877 697.757 435.026 697.105 435.251 696.477C435.417 696.477 435.01 699.297 434.858 703.858C434.769 706.133 434.858 708.839 434.985 711.837C435.403 718.351 436.633 724.787 438.644 730.997C439.584 733.855 440.549 736.384 441.464 738.467C443.319 742.648 444.717 745.1 444.577 745.189Z" fill="#F2F2F2"/>
<path d="M466.963 763.67C466.336 763.117 465.773 762.495 465.286 761.815C464.752 761.206 464.129 760.431 463.469 759.503C462.808 758.576 462.008 757.534 461.245 756.301C460.483 755.069 459.606 753.76 458.793 752.261C457.98 750.762 457.129 749.161 456.252 747.458C452.679 739.951 450.344 731.915 449.34 723.662C449.137 721.756 448.921 719.952 448.883 718.249C448.845 716.547 448.769 714.971 448.794 713.536C448.82 712.1 448.896 710.779 448.959 709.635C449.023 708.492 449.124 707.513 449.239 706.713C449.293 705.879 449.433 705.053 449.658 704.248C449.747 705.093 449.747 705.944 449.658 706.789C449.595 707.59 449.544 708.568 449.544 709.699C449.544 710.829 449.455 712.138 449.544 713.574C449.633 715.009 449.544 716.572 449.747 718.249C449.95 719.926 450.065 721.705 450.281 723.585C451.368 731.716 453.663 739.638 457.091 747.09C457.917 748.792 458.666 750.419 459.492 751.88C460.318 753.341 461.08 754.713 461.83 755.946C462.579 757.178 463.304 758.232 463.926 759.185C464.549 760.138 465.108 760.951 465.59 761.587C466.113 762.236 466.572 762.934 466.963 763.67Z" fill="#F2F2F2"/>
<path d="M530.906 785.753C531.3 784.866 531.772 784.016 532.317 783.212C533.282 781.56 534.68 779.197 536.408 776.275C541.005 768.716 544.961 760.786 548.236 752.567C551.479 744.299 553.168 735.504 553.217 726.623C553.197 723.948 552.989 721.277 552.594 718.631C552.397 717.667 552.261 716.691 552.188 715.709C552.307 715.937 552.392 716.181 552.442 716.433C552.556 716.916 552.785 717.627 552.963 718.568C553.502 721.217 553.812 723.908 553.89 726.61C554.025 735.562 552.406 744.453 549.126 752.783C545.848 761.062 541.78 769.005 536.979 776.504C535.188 779.4 533.689 781.713 532.634 783.301C532.123 784.162 531.546 784.982 530.906 785.753Z" fill="#F2F2F2"/>
<path d="M545.906 776.223C546.126 775.565 546.42 774.934 546.783 774.343C547.393 773.148 548.282 771.433 549.324 769.337C551.522 765.106 554.406 759.236 557.493 752.617C560.581 745.997 562.995 739.911 564.735 735.49L566.806 730.243C567.017 729.579 567.307 728.944 567.67 728.35C567.58 729.04 567.409 729.718 567.162 730.37C566.781 731.64 566.171 733.483 565.371 735.731C563.783 740.229 561.381 746.378 558.357 753.023C555.334 759.668 552.272 765.5 549.908 769.654C548.739 771.725 547.749 773.39 547.037 774.52C546.735 775.134 546.355 775.707 545.906 776.223Z" fill="#F2F2F2"/>
<defs>
<radialGradient id="paint0_radial_246_331" cx="0" cy="0" r="1" gradientUnits="userSpaceOnUse" gradientTransform="translate(608.087 509.262) scale(490.828 490.829)">
<stop stop-color="#E3ED9D"/>
<stop offset="0.11" stop-color="#DBEAA1"/>
<stop offset="0.29" stop-color="#C5E1AA"/>
<stop offset="0.5" stop-color="#A2D3BB"/>
<stop offset="0.54" stop-color="#9AD0BE"/>
<stop offset="0.57" stop-color="#94CBBB"/>
<stop offset="0.68" stop-color="#75B5AB"/>
<stop offset="0.79" stop-color="#5FA4A0"/>
<stop offset="0.9" stop-color="#529A99"/>
<stop offset="1" stop-color="#4D9797"/>
</radialGradient>
<linearGradient id="paint1_linear_246_331" x1="394.23" y1="560.61" x2="395.348" y2="491.417" gradientUnits="userSpaceOnUse">
<stop stop-color="#93278F"/>
<stop offset="0.24" stop-color="#85217A"/>
<stop offset="0.72" stop-color="#601345"/>
<stop offset="1" stop-color="#490A23"/>
</linearGradient>
<linearGradient id="paint2_linear_246_331" x1="596.386" y1="561.741" x2="595.268" y2="492.561" gradientUnits="userSpaceOnUse">
<stop stop-color="#93278F"/>
<stop offset="0.24" stop-color="#85217A"/>
<stop offset="0.72" stop-color="#601345"/>
<stop offset="1" stop-color="#490A23"/>
</linearGradient>
</defs>
</svg>
