<svg width="1000" height="1000" viewBox="0 0 1000 1000" fill="none" xmlns="http://www.w3.org/2000/svg">
<path d="M0 20C0 8.95429 8.9543 0 20 0H980C991.046 0 1000 8.9543 1000 20V980C1000 991.046 991.046 1000 980 1000H20C8.95429 1000 0 991.046 0 980V20Z" fill="#C7FFF5"/>
<circle cx="500" cy="516" r="400" fill="#BDF3E9"/>
<ellipse cx="500" cy="889" rx="368" ry="56" fill="#F1FFFD"/>
<ellipse cx="499.5" cy="879" rx="203.5" ry="27" fill="#94E4D5"/>
<path d="M767.88 626.329C758.502 842.539 598.8 882.134 502.697 882.134C406.594 882.134 244.809 849.833 244.809 626.329C244.809 380.944 406.594 129.828 502.697 129.828C598.8 129.828 767.88 361.668 767.88 626.329Z" fill="#FFA800"/>
<path d="M710.046 588.248C631.778 741.721 390.578 794.946 304.105 750.847C217.632 706.747 239.135 527.913 295.396 372.138C366.777 213.237 476.634 98.0965 541.308 140.819C633.97 197.605 780.669 449.765 710.046 588.248Z" fill="#FFCF23"/>
<path d="M594.916 458.571C532.759 580.454 355.565 647.287 299.557 618.724C243.549 590.161 285.797 423.954 330.314 300.24C388.146 166.347 486.284 103.831 537.863 139.779C591.725 170.52 657.073 336.689 594.916 458.571Z" fill="#FFE070"/>
<ellipse cx="439.875" cy="322.391" rx="71.7472" ry="172.817" transform="rotate(33.6906 439.875 322.391)" fill="#FFEA9E"/>
<ellipse cx="430.658" cy="267.38" rx="33.5607" ry="92.1627" transform="rotate(33.6906 430.658 267.38)" fill="white"/>
<path d="M204.506 328.09L224.5 350.088L232.5 356.088L243.5 357.088L270.506 356.088L239.5 378.088L227.5 391.088L224 403.588L224.507 435.59L206.5 406.088L199.5 398.588L191.5 394.588L177 391.088L134 394.588L170.5 378.088L191.5 365.588L197.5 357.088L202.5 347.588L204.506 328.09Z" fill="#FFA800"/>
<path d="M205.641 335.493L220.569 351.917L226.542 356.397L234.755 357.143L254.918 356.397L231.768 372.822L222.809 382.529L220.196 391.861L220.574 415.755L207.13 393.728L201.903 388.128L195.93 385.142L185.104 382.529L153 385.142L180.251 372.822L195.93 363.49L200.41 357.143L204.143 350.05L205.641 335.493Z" fill="#FFD600"/>
<path d="M206.754 346.828L217.461 358.608L221.745 361.821L227.635 362.356L242.096 361.821L225.493 373.601L219.067 380.562L217.193 387.256L217.465 404.392L207.822 388.595L204.074 384.579L199.79 382.437L192.026 380.562L169 382.437L188.545 373.601L199.79 366.908L203.003 362.356L205.68 357.269L206.754 346.828Z" fill="white"/>
<path d="M723.813 320.349L740.269 308.809L744.974 303.954L746.58 296.661L748.206 278.462L760.325 301.13L768.024 310.284L776.11 313.695L797.618 316.077L776.299 325.645L770.673 329.703L767.31 334.728L763.729 344.156L762.419 373.295L754.456 347.41L747.858 332.262L742.667 327.514L736.721 323.353L723.813 320.349Z" fill="#FFA800"/>
<path d="M728.874 320.217L741.16 311.601L744.673 307.975L745.872 302.53L747.087 288.943L756.135 305.867L761.883 312.702L767.92 315.248L783.978 317.027L768.061 324.171L763.86 327.2L761.349 330.952L758.676 337.991L757.698 359.747L751.753 340.421L746.827 329.111L742.951 325.566L738.511 322.459L728.874 320.217Z" fill="#FFD600"/>
<path d="M736.572 320.435L745.383 314.256L747.903 311.656L748.763 307.75L749.634 298.006L756.123 310.144L760.246 315.046L764.576 316.872L776.093 318.147L764.677 323.271L761.664 325.444L759.863 328.135L757.946 333.183L757.244 348.786L752.98 334.926L749.447 326.814L746.668 324.272L743.483 322.043L736.572 320.435Z" fill="white"/>
<path d="M836.385 596.893L824.927 580.38L820.096 575.651L812.811 574.008L794.621 572.29L817.349 560.285L826.542 552.633L829.993 544.563L832.483 523.068L841.944 544.435L845.973 550.081L850.982 553.469L860.392 557.098L889.524 558.554L863.599 566.386L848.418 572.908L843.644 578.075L839.453 584.001L836.385 596.893Z" fill="#FFA800"/>
<path d="M836.28 591.831L827.726 579.502L824.118 575.971L818.679 574.744L805.098 573.462L822.067 564.499L828.931 558.785L831.508 552.76L833.367 536.711L840.431 552.664L843.439 556.88L847.178 559.41L854.204 562.119L875.955 563.206L856.599 569.054L845.264 573.923L841.7 577.781L838.571 582.205L836.28 591.831Z" fill="#FFD600"/>
<path d="M836.534 584.134L830.399 575.291L827.812 572.759L823.911 571.879L814.171 570.959L826.341 564.531L831.264 560.433L833.112 556.112L834.445 544.602L839.511 556.044L841.669 559.067L844.351 560.881L849.39 562.824L864.989 563.604L851.107 567.798L842.978 571.29L840.422 574.057L838.177 577.23L836.534 584.134Z" fill="white"/>
</svg>
